<?xml version="1.0" encoding="utf-8"?>
<!-- Generator: Adobe Illustrator 19.0.0, SVG Export Plug-In . SVG Version: 6.00 Build 0)  -->
<svg version="1.1" id="Layer_1" xmlns="http://www.w3.org/2000/svg" xmlns:xlink="http://www.w3.org/1999/xlink" x="0px" y="0px"
	 viewBox="-41 164.9 512 512" style="enable-background:new -41 164.9 512 512;" xml:space="preserve">
<style type="text/css">
	.st0{fill:#FF5C5C;}
	.st1{fill:#FAFAFA;}
</style>
<path class="st0" d="M215,164.9c-141.2,0-256,114.8-256,256s114.8,256,256,256s256-114.8,256-256S356.2,164.9,215,164.9z"/>
<path class="st1" d="M309.3,485c8.3,8.3,8.3,21.8,0,30.2c-4.2,4.2-9.6,6.3-15.1,6.3s-10.9-2.1-15.1-6.3L215,451.1l-64.1,64.1
	c-4.2,4.2-9.6,6.3-15.1,6.3s-10.9-2.1-15.1-6.3c-8.3-8.3-8.3-21.8,0-30.2l64.1-64.1l-64.1-64.1c-8.3-8.3-8.3-21.8,0-30.2
	c8.3-8.3,21.8-8.3,30.2,0l64.1,64.1l64.1-64.1c8.3-8.3,21.8-8.3,30.2,0c8.3,8.3,8.3,21.8,0,30.2l-64.1,64.1L309.3,485z"/>
</svg>
