<?xml version="1.0" encoding="utf-8"?>
<!-- Generator: Adobe Illustrator 19.0.0, SVG Export Plug-In . SVG Version: 6.00 Build 0)  -->
<svg version="1.1" id="Layer_1" xmlns="http://www.w3.org/2000/svg" xmlns:xlink="http://www.w3.org/1999/xlink" x="0px" y="0px"
	 viewBox="0 0 57 54.4" style="enable-background:new 0 0 57 54.4;" xml:space="preserve">
<style type="text/css">
	.st0{fill:#8BC26B;}
	.st1{fill:#3EB077;}
	.st2{fill:#58565D;}
	.st3{fill:#484848;}
</style>
<path id="XMLID_54_" class="st0" d="M12.9,48.9l-4.7-4.7c-0.7-0.7-1.7-0.7-2.4,0l-5.3,5.1c-0.7,0.7-0.7,1.7,0,2.4l2.6,2.4
	c0.3,0.3,0.7,0.5,1.2,0.5l4.7,0c0.5,0,1-0.2,1.3-0.6l2.6-2.6C13.5,50.6,13.5,49.5,12.9,48.9z"/>
<path id="XMLID_53_" class="st1" d="M12.9,51.2l-2.6,2.6C10,54.2,9.5,54.4,9,54.4l-4.7,0c-0.4,0-0.9-0.2-1.2-0.5l7.4-7.4l2.4,2.4
	C13.5,49.5,13.5,50.6,12.9,51.2z"/>
<path id="XMLID_52_" class="st0" d="M28.1,45.2l-3.5,1.3L10.5,32.3l1.3-3.5L43.7,1.2c2-1.7,5-1.6,6.8,0.3l5.1,5.1
	c1.8,1.8,2,4.8,0.2,6.8L28.1,45.2z"/>
<path id="XMLID_51_" class="st1" d="M28.1,45.2l-3.5,1.3l-7.1-7.1L53,4l2.5,2.5c1.8,1.8,2,4.8,0.2,6.8L28.1,45.2z"/>
<path id="XMLID_50_" class="st2" d="M28.1,45.2L11.7,28.9l-1.2,1l-2.5,2.5c-1.9,1.9-2,4.9-0.2,6.8c-0.2,0.4-0.7,1.1-1.1,1.6
	c-1.1,1.4-3,3.8-1,5.8l4.7,4.7c0.6,0.6,1.3,0.8,1.9,0.8c1.4,0,2.9-1.1,3.8-1.9c0.4-0.4,1.1-0.9,1.6-1.1c2,1.7,5,1.6,6.8-0.2l2.5-2.5
	L28.1,45.2z"/>
<path id="XMLID_49_" class="st3" d="M27.1,46.4l-2.5,2.5c-1.9,1.9-4.9,2-6.8,0.2c-0.4,0.2-1.1,0.7-1.6,1.1c-1,0.8-2.4,1.9-3.8,1.9
	c-0.7,0-1.3-0.2-1.9-0.8l-2.4-2.4L19.9,37l8.2,8.2L27.1,46.4z"/>
</svg>
