<?xml version="1.0" encoding="utf-8"?>
<!-- Generator: Adobe Illustrator 19.0.0, SVG Export Plug-In . SVG Version: 6.00 Build 0)  -->
<svg version="1.1" id="Layer_1" xmlns="http://www.w3.org/2000/svg" xmlns:xlink="http://www.w3.org/1999/xlink" x="0px" y="0px"
	 viewBox="0 0 57 57" style="enable-background:new 0 0 57 57;" xml:space="preserve">
<style type="text/css">
	.st0{fill:#8BC26B;}
	.st1{fill:#3EB077;}
</style>
<g id="XMLID_24_">
	<g id="XMLID_25_">
		<path id="XMLID_27_" class="st0" d="M28.5,0c-0.8,0-1.5,0-2.2,0.1C25,2.5,24,4.8,23,7c1.4,0.8,2.3,2.3,2.3,4
			c0,2.6-2.1,4.8-4.8,4.8c-0.2,0-0.4,0-0.7,0C11.6,43.9,26,56.2,27.4,57c0.4,0,0.8,0,1.1,0c2.6,0,4.8-2.1,4.8-4.8
			c0-1.2-0.5-2.3-1.2-3.2c-0.7-0.8-1.2-1.9-1.2-3.1c0-2.6,2.1-4.8,4.8-4.8h5.6c8.7,0,15.8-7.1,15.8-15.8C57,11.3,44.2,0,28.5,0z
			 M36.4,15.8c-2.6,0-4.8-2.1-4.8-4.8c0-2.6,2.1-4.7,4.8-4.7c2.6,0,4.8,2.1,4.8,4.7C41.2,13.7,39,15.8,36.4,15.8z M45.9,28.5
			c-2.6,0-4.8-2.1-4.8-4.8c0-2.6,2.1-4.8,4.8-4.8c2.6,0,4.8,2.1,4.8,4.8C50.7,26.4,48.5,28.5,45.9,28.5z"/>
		<path id="XMLID_75_" class="st1" d="M19.9,15.8c-2.3-0.3-4.1-2.3-4.1-4.7c0-2.6,2.1-4.7,4.8-4.7c0.9,0,1.8,0.3,2.5,0.7
			c0.9-2.2,2-4.5,3.2-6.9C11.6,1.2,0,13.5,0,28.5C0,43.9,12.2,56.4,27.4,57C26,56.2,11.6,43.9,19.9,15.8z M11.1,28.5
			c-2.6,0-4.7-2.1-4.7-4.8c0-2.6,2.1-4.8,4.7-4.8c2.6,0,4.8,2.1,4.8,4.8C15.8,26.4,13.7,28.5,11.1,28.5z"/>
	</g>
</g>
</svg>
