<?xml version="1.0" encoding="utf-8"?>
<!-- Generator: Adobe Illustrator 19.0.0, SVG Export Plug-In . SVG Version: 6.00 Build 0)  -->
<svg version="1.1" id="Layer_1" xmlns="http://www.w3.org/2000/svg" xmlns:xlink="http://www.w3.org/1999/xlink" x="0px" y="0px"
	 viewBox="0 0 100 100" style="enable-background:new 0 0 100 100;" xml:space="preserve">
<style type="text/css">
	.st0{fill:none;stroke:#DADADA;stroke-width:0.3;stroke-miterlimit:10;}
</style>
<g id="XMLID_1_">
	<rect id="XMLID_2_" class="st0" width="100" height="100"/>
	<line id="XMLID_3_" class="st0" x1="0" y1="90" x2="100" y2="90"/>
	<line id="XMLID_4_" class="st0" x1="0" y1="80" x2="100" y2="80"/>
	<line id="XMLID_5_" class="st0" x1="0" y1="70" x2="100" y2="70"/>
	<line id="XMLID_6_" class="st0" x1="0" y1="60" x2="100" y2="60"/>
	<line id="XMLID_7_" class="st0" x1="0" y1="50" x2="100" y2="50"/>
	<line id="XMLID_8_" class="st0" x1="0" y1="40" x2="100" y2="40"/>
	<line id="XMLID_9_" class="st0" x1="0" y1="30" x2="100" y2="30"/>
	<line id="XMLID_10_" class="st0" x1="0" y1="20" x2="100" y2="20"/>
	<line id="XMLID_11_" class="st0" x1="0" y1="10" x2="100" y2="10"/>
	<line id="XMLID_12_" class="st0" x1="90" y1="0" x2="90" y2="100"/>
	<line id="XMLID_13_" class="st0" x1="80" y1="0" x2="80" y2="100"/>
	<line id="XMLID_14_" class="st0" x1="70" y1="0" x2="70" y2="100"/>
	<line id="XMLID_15_" class="st0" x1="60" y1="0" x2="60" y2="100"/>
	<line id="XMLID_16_" class="st0" x1="50" y1="0" x2="50" y2="100"/>
	<line id="XMLID_17_" class="st0" x1="40" y1="0" x2="40" y2="100"/>
	<line id="XMLID_18_" class="st0" x1="30" y1="0" x2="30" y2="100"/>
	<line id="XMLID_19_" class="st0" x1="20" y1="0" x2="20" y2="100"/>
	<line id="XMLID_20_" class="st0" x1="10" y1="0" x2="10" y2="100"/>
</g>
</svg>
