<?xml version="1.0" encoding="utf-8"?>
<!-- Generator: Adobe Illustrator 19.0.0, SVG Export Plug-In . SVG Version: 6.00 Build 0)  -->
<svg version="1.1" id="Layer_1" xmlns="http://www.w3.org/2000/svg" xmlns:xlink="http://www.w3.org/1999/xlink" x="0px" y="0px"
	 viewBox="0 0 74.8 36" style="enable-background:new 0 0 74.8 36;" xml:space="preserve">
<style type="text/css">
	.st0{fill:#3EB077;}
</style>
<g id="XMLID_13_">
	<path id="XMLID_18_" class="st0" d="M8.7,1c0,0,0.1,0.1,0.4,0.2c0.2,0.1,0.4,0.2,0.8,0.4c0.3,0.2,0.6,0.4,0.8,0.6
		c0.3,0.2,0.4,0.5,0.4,0.7c-0.2,0.9-0.5,2.1-0.9,3.6c-0.4,1.5-0.8,3.3-1.1,5.3c-0.2,1-0.3,2-0.3,3.1l0,0.2c0,0,0-0.1,0-0.1l0,0
		l0,0.1l0,0.1l0,0.5c0,0.4,0,0.6,0,0.8c0,0.5,0,1.1,0.1,1.6c0.2,2.2,0.9,4.4,2.2,6.1c0.7,0.8,1.4,1.5,2.5,2.1
		c0.9,0.5,1.1,0.5,1.6,0.7c0.3,0.1,0.6,0.1,0.8,0.2c0.3,0.1,0.6,0.1,0.9,0.1c2.3,0.3,5.1-0.5,7.8-2c2.7-1.5,5.3-3.7,7.6-6.2
		c2.3-2.5,4.4-5.4,6.6-8.3c1.1-1.4,2.3-3,3.7-4.5c1.4-1.5,3-2.8,5-3.8c1-0.5,2-0.9,3-1.2l0.4-0.1l0.2,0l0.1,0l0.2,0l0.6-0.1l0.3,0
		l0.4,0l0.9-0.1c2.1,0,4.1,0.4,5.8,1.1c1.7,0.7,3.3,1.7,4.6,2.7c1.4,1.1,2.5,2.2,3.5,3.5c0.2,0.3,0.4,0.6,0.6,0.8
		c0.2,0.3,0.4,0.6,0.6,0.9c0.4,0.6,0.8,1.2,1.1,1.8c0.7,1.2,1.2,2.3,1.7,3.4c0.9,2.2,1.5,4.1,2,5.7c0.5,1.6,0.8,2.8,1,3.6
		c0.2,0.8,0.3,1.3,0.3,1.3l-2.8,0.9c0,0-0.2-0.4-0.5-1.2c-0.3-0.8-0.8-2-1.4-3.4c-0.6-1.4-1.4-3.2-2.4-5.1c-0.5-0.9-1.1-1.9-1.7-2.9
		c-0.3-0.5-0.7-1-1-1.4c-0.2-0.2-0.4-0.4-0.5-0.7c-0.2-0.3-0.4-0.5-0.7-0.8c-1.5-1.7-3.8-3.3-6.2-4c-1.2-0.4-2.5-0.5-3.7-0.4l-0.4,0
		l-0.2,0l-0.3,0.1l-0.6,0.1c0,0-0.2,0,0.1,0l0,0l-0.1,0l-0.1,0l-0.2,0.1c-0.6,0.2-1.2,0.4-1.7,0.8c-2.2,1.3-4.1,3.9-6,6.8
		c-2,3-4.1,6.1-6.7,9.2c-0.3,0.4-0.6,0.8-1,1.1c-0.3,0.4-0.7,0.8-1,1.1c-0.7,0.7-1.4,1.4-2.2,2.1c-1.5,1.4-3.1,2.6-4.9,3.7
		c-1.8,1.1-3.7,2-5.8,2.6c-2.1,0.6-4.4,0.9-6.6,0.7c-0.6-0.1-1.1-0.1-1.7-0.2c-0.6-0.1-1.1-0.3-1.6-0.4c-1.1-0.4-2.5-0.9-3-1.3
		c-1.9-1-3.7-2.4-5-4.1c-1.4-1.6-2.3-3.5-2.9-5.2c-0.6-1.8-1-3.5-1.2-5.1c-0.1-0.8-0.1-1.6-0.2-2.4c0-0.4,0-0.8,0-1.1l0-0.5l0-0.3
		l0-0.3c0.1-1.4,0.2-2.8,0.4-4c0.4-2.4,0.8-4.4,1.2-6C2.3,3,2.6,1.8,2.8,1c0.5-0.7,3-0.7,3-0.7L8.7,1z"/>
</g>
</svg>
